# xmcd CD database file
#
# Track frame offsets:
#	150
#	17697
#	47540
#	61087
#	77562
#	98362
#	111340
#	126722
#	142465
#	160485
#	176917
#
# Disc length: 2621 seconds
#
# Revision: 20
# Processed by: cddbd v1.5.2PL0 Copyright (c) Steve Scherf et al.
# Submitted via: CDex 1.78
#
DISCID=980a3b0b
DTITLE=Jethro Tull - "M .U ."  -  The Best Of Jethro Tull
DYEAR=1984
DGENRE=Progressive Rock
TTITLE0=Teacher
TTITLE1=Aqualung
TTITLE2=Thick As A Brick Edit #1
TTITLE3=Bungle In The Jungle
TTITLE4=Locomotive Breath
TTITLE5=Fat Man
TTITLE6=Living In The Past
TTITLE7=A Passion Play Edit #8
TTITLE8=Skating Away (On The Thin Ice Of The New Day)
TTITLE9=Rainbow Blues
TTITLE10=Nothing Is Easy
EXTD=YEAR: 1984
EXTT0=
EXTT1=
EXTT2=
EXTT3=
EXTT4=
EXTT5=
EXTT6=
EXTT7=
EXTT8=
EXTT9=
EXTT10=
PLAYORDER=
